<mxfile host="Electron" modified="2023-09-05T07:35:36.452Z" agent="Mozilla/5.0 (Windows NT 10.0; Win64; x64) AppleWebKit/537.36 (KHTML, like Gecko) draw.io/21.5.1 Chrome/112.0.5615.204 Electron/24.6.0 Safari/537.36" etag="vW_tSSawtM-QHodL0fpj" version="21.5.1" type="device">
  <diagram id="6K2L0thh9Qf6AcWFtn7J" name="Overview">
    <mxGraphModel dx="30" dy="-453" grid="1" gridSize="10" guides="1" tooltips="1" connect="1" arrows="1" fold="1" page="1" pageScale="1" pageWidth="850" pageHeight="1100" math="0" shadow="0">
      <root>
        <mxCell id="0" />
        <mxCell id="1" parent="0" />
        <mxCell id="yG2wOSbRxI6GufdI99vh-3" value="" style="aspect=fixed;html=1;points=[];align=center;image;fontSize=12;image=img/lib/azure2/databases/Azure_Cosmos_DB.svg;" parent="1" vertex="1">
          <mxGeometry x="1430" y="1275.5" width="64" height="64" as="geometry" />
        </mxCell>
        <mxCell id="yG2wOSbRxI6GufdI99vh-26" value="" style="aspect=fixed;html=1;points=[];align=center;image;fontSize=12;image=img/lib/azure2/preview/Static_Apps.svg;" parent="1" vertex="1">
          <mxGeometry x="890" y="1275.5" width="70" height="56.00000000000001" as="geometry" />
        </mxCell>
        <mxCell id="yG2wOSbRxI6GufdI99vh-27" value="" style="aspect=fixed;html=1;points=[];align=center;image;fontSize=12;image=img/lib/azure2/integration/API_Management_Services.svg;" parent="1" vertex="1">
          <mxGeometry x="1069.5" y="1275.5" width="65" height="60" as="geometry" />
        </mxCell>
        <mxCell id="yG2wOSbRxI6GufdI99vh-30" value="" style="endArrow=classic;html=1;rounded=0;startArrow=classic;exitX=0.964;exitY=0.785;exitDx=0;exitDy=0;exitPerimeter=0;startFill=1;" parent="1" source="yG2wOSbRxI6GufdI99vh-27" edge="1" target="ZJQy_w_e6BmF9ysCzNVd-1">
          <mxGeometry width="50" height="50" relative="1" as="geometry">
            <mxPoint x="1230.5" y="1180" as="sourcePoint" />
            <mxPoint x="1438" y="1180" as="targetPoint" />
          </mxGeometry>
        </mxCell>
        <mxCell id="yG2wOSbRxI6GufdI99vh-45" value="" style="aspect=fixed;html=1;points=[];align=center;image;fontSize=12;image=img/lib/azure2/compute/Function_Apps.svg;" parent="1" vertex="1">
          <mxGeometry x="1224" y="1510" width="68" height="60" as="geometry" />
        </mxCell>
        <mxCell id="ZJQy_w_e6BmF9ysCzNVd-1" value="" style="image;aspect=fixed;html=1;points=[];align=center;fontSize=12;image=img/lib/azure2/databases/Cache_Redis.svg;" vertex="1" parent="1">
          <mxGeometry x="1160" y="1420" width="64" height="52" as="geometry" />
        </mxCell>
        <mxCell id="ZJQy_w_e6BmF9ysCzNVd-2" value="" style="image;aspect=fixed;html=1;points=[];align=center;fontSize=12;image=img/lib/azure2/app_services/App_Services.svg;" vertex="1" parent="1">
          <mxGeometry x="1270" y="1279.5" width="54" height="54" as="geometry" />
        </mxCell>
        <mxCell id="ZJQy_w_e6BmF9ysCzNVd-3" value="" style="endArrow=classic;html=1;rounded=0;startArrow=none;entryX=0.035;entryY=0.443;entryDx=0;entryDy=0;entryPerimeter=0;exitX=1.078;exitY=0.465;exitDx=0;exitDy=0;exitPerimeter=0;" edge="1" parent="1" source="yG2wOSbRxI6GufdI99vh-27" target="ZJQy_w_e6BmF9ysCzNVd-2">
          <mxGeometry width="50" height="50" relative="1" as="geometry">
            <mxPoint x="1140" y="1307" as="sourcePoint" />
            <mxPoint x="1189" y="1430" as="targetPoint" />
          </mxGeometry>
        </mxCell>
        <mxCell id="ZJQy_w_e6BmF9ysCzNVd-4" value="" style="endArrow=classic;html=1;rounded=0;startArrow=none;exitX=1.078;exitY=0.465;exitDx=0;exitDy=0;exitPerimeter=0;" edge="1" parent="1">
          <mxGeometry width="50" height="50" relative="1" as="geometry">
            <mxPoint x="1324" y="1306.1" as="sourcePoint" />
            <mxPoint x="1440" y="1306.1" as="targetPoint" />
          </mxGeometry>
        </mxCell>
        <mxCell id="ZJQy_w_e6BmF9ysCzNVd-5" value="" style="endArrow=classic;html=1;rounded=0;startArrow=classic;exitX=0.291;exitY=0.996;exitDx=0;exitDy=0;exitPerimeter=0;entryX=0.881;entryY=-0.037;entryDx=0;entryDy=0;entryPerimeter=0;startFill=1;" edge="1" parent="1" source="ZJQy_w_e6BmF9ysCzNVd-2" target="ZJQy_w_e6BmF9ysCzNVd-1">
          <mxGeometry width="50" height="50" relative="1" as="geometry">
            <mxPoint x="1142" y="1333" as="sourcePoint" />
            <mxPoint x="1189" y="1430" as="targetPoint" />
          </mxGeometry>
        </mxCell>
        <mxCell id="ZJQy_w_e6BmF9ysCzNVd-6" value="" style="endArrow=classic;html=1;rounded=0;startArrow=none;entryX=-0.029;entryY=0.511;entryDx=0;entryDy=0;entryPerimeter=0;exitX=1.02;exitY=0.53;exitDx=0;exitDy=0;exitPerimeter=0;" edge="1" parent="1" source="yG2wOSbRxI6GufdI99vh-26" target="yG2wOSbRxI6GufdI99vh-27">
          <mxGeometry width="50" height="50" relative="1" as="geometry">
            <mxPoint x="1150" y="1313" as="sourcePoint" />
            <mxPoint x="1282" y="1313" as="targetPoint" />
          </mxGeometry>
        </mxCell>
        <mxCell id="ZJQy_w_e6BmF9ysCzNVd-7" value="" style="curved=1;endArrow=classic;html=1;rounded=0;" edge="1" parent="1">
          <mxGeometry width="50" height="50" relative="1" as="geometry">
            <mxPoint x="1170" y="1480" as="sourcePoint" />
            <mxPoint x="1234" y="1440" as="targetPoint" />
            <Array as="points">
              <mxPoint x="1184" y="1520" />
              <mxPoint x="1250" y="1500" />
              <mxPoint x="1254" y="1460" />
            </Array>
          </mxGeometry>
        </mxCell>
        <mxCell id="ZJQy_w_e6BmF9ysCzNVd-13" value="" style="image;aspect=fixed;html=1;points=[];align=center;fontSize=12;image=img/lib/azure2/management_governance/Monitor.svg;" vertex="1" parent="1">
          <mxGeometry x="1030" y="1490" width="64" height="64" as="geometry" />
        </mxCell>
        <mxCell id="ZJQy_w_e6BmF9ysCzNVd-14" value="" style="endArrow=none;dashed=1;html=1;rounded=0;" edge="1" parent="1" target="ZJQy_w_e6BmF9ysCzNVd-1">
          <mxGeometry width="50" height="50" relative="1" as="geometry">
            <mxPoint x="1090" y="1510" as="sourcePoint" />
            <mxPoint x="1144" y="1460" as="targetPoint" />
          </mxGeometry>
        </mxCell>
        <mxCell id="ZJQy_w_e6BmF9ysCzNVd-15" value="Static Web App" style="text;html=1;strokeColor=none;fillColor=none;align=center;verticalAlign=middle;whiteSpace=wrap;rounded=0;" vertex="1" parent="1">
          <mxGeometry x="895" y="1339.5" width="60" height="30" as="geometry" />
        </mxCell>
        <mxCell id="ZJQy_w_e6BmF9ysCzNVd-16" value="APIM" style="text;html=1;strokeColor=none;fillColor=none;align=center;verticalAlign=middle;whiteSpace=wrap;rounded=0;" vertex="1" parent="1">
          <mxGeometry x="1070" y="1335.5" width="60" height="30" as="geometry" />
        </mxCell>
        <mxCell id="ZJQy_w_e6BmF9ysCzNVd-17" value="App Service" style="text;html=1;strokeColor=none;fillColor=none;align=center;verticalAlign=middle;whiteSpace=wrap;rounded=0;" vertex="1" parent="1">
          <mxGeometry x="1275" y="1339.5" width="60" height="30" as="geometry" />
        </mxCell>
        <mxCell id="ZJQy_w_e6BmF9ysCzNVd-18" value="Cosmos Db" style="text;html=1;strokeColor=none;fillColor=none;align=center;verticalAlign=middle;whiteSpace=wrap;rounded=0;" vertex="1" parent="1">
          <mxGeometry x="1430" y="1339.5" width="60" height="30" as="geometry" />
        </mxCell>
        <mxCell id="ZJQy_w_e6BmF9ysCzNVd-19" value="Function" style="text;html=1;strokeColor=none;fillColor=none;align=center;verticalAlign=middle;whiteSpace=wrap;rounded=0;" vertex="1" parent="1">
          <mxGeometry x="1224" y="1580" width="60" height="30" as="geometry" />
        </mxCell>
        <mxCell id="ZJQy_w_e6BmF9ysCzNVd-20" value="Cache for Redis" style="text;html=1;strokeColor=none;fillColor=none;align=center;verticalAlign=middle;whiteSpace=wrap;rounded=0;" vertex="1" parent="1">
          <mxGeometry x="1094" y="1420" width="60" height="30" as="geometry" />
        </mxCell>
        <mxCell id="ZJQy_w_e6BmF9ysCzNVd-22" value="Monitor" style="text;html=1;strokeColor=none;fillColor=none;align=center;verticalAlign=middle;whiteSpace=wrap;rounded=0;" vertex="1" parent="1">
          <mxGeometry x="1040" y="1564" width="60" height="30" as="geometry" />
        </mxCell>
      </root>
    </mxGraphModel>
  </diagram>
</mxfile>
